#tb 0: 1/3
#media_type 0: video
#codec_id 0: rawvideo
#dimensions 0: 320x240
#sar 0: 1/1
0,          0,          0,        1,   115200, 0xb986bcbd
0,          1,          1,        1,   115200, 0xed18e21f
0,          2,          2,        1,   115200, 0x6fedfa63
0,          3,          3,        1,   115200, 0xa4e0d22b
0,          4,          4,        1,   115200, 0x32332c36
0,          5,          5,        1,   115200, 0xa611fd70
0,          6,          6,        1,   115200, 0x0fa5c984
0,          7,          7,        1,   115200, 0x127c21d0
0,          8,          8,        1,   115200, 0x4194305c
0,          9,          9,        1,   115200, 0x274845a7
0,         10,         10,        1,   115200, 0x9aa1765a
